<mxfile host="app.diagrams.net" modified="2021-06-19T13:36:57.539Z" agent="5.0 (Windows NT 10.0; Win64; x64) AppleWebKit/537.36 (KHTML, like Gecko) Chrome/91.0.4472.106 Safari/537.36" etag="UnlnutIm1cv_Y5k6Y34M" version="14.7.9" type="github">
  <diagram id="xXjCyACdQfbOIhHh-awv" name="Page-1">
    <mxGraphModel dx="1871" dy="529" grid="1" gridSize="10" guides="1" tooltips="1" connect="1" arrows="1" fold="1" page="1" pageScale="1" pageWidth="850" pageHeight="1100" math="0" shadow="0">
      <root>
        <mxCell id="0" />
        <mxCell id="1" parent="0" />
        <mxCell id="ngRxiMYijirylgywiZqK-1" value="Department" style="whiteSpace=wrap;html=1;align=center;" vertex="1" parent="1">
          <mxGeometry x="580" y="240" width="100" height="40" as="geometry" />
        </mxCell>
        <mxCell id="ngRxiMYijirylgywiZqK-2" value="Lectures" style="whiteSpace=wrap;html=1;align=center;" vertex="1" parent="1">
          <mxGeometry x="110" y="440" width="100" height="40" as="geometry" />
        </mxCell>
        <mxCell id="ngRxiMYijirylgywiZqK-3" value="practice session&amp;nbsp;" style="whiteSpace=wrap;html=1;align=center;" vertex="1" parent="1">
          <mxGeometry x="820" y="530" width="100" height="40" as="geometry" />
        </mxCell>
        <mxCell id="ngRxiMYijirylgywiZqK-4" value="professors" style="whiteSpace=wrap;html=1;align=center;" vertex="1" parent="1">
          <mxGeometry x="240" y="280" width="100" height="40" as="geometry" />
        </mxCell>
        <mxCell id="ngRxiMYijirylgywiZqK-5" value="Courses" style="whiteSpace=wrap;html=1;align=center;" vertex="1" parent="1">
          <mxGeometry x="480" y="520" width="100" height="40" as="geometry" />
        </mxCell>
        <mxCell id="ngRxiMYijirylgywiZqK-6" value="Student" style="whiteSpace=wrap;html=1;align=center;" vertex="1" parent="1">
          <mxGeometry x="840" y="460" width="100" height="40" as="geometry" />
        </mxCell>
        <mxCell id="ngRxiMYijirylgywiZqK-7" value="prof_ID" style="ellipse;whiteSpace=wrap;html=1;align=center;fontStyle=4;" vertex="1" parent="1">
          <mxGeometry x="120" y="240" width="100" height="40" as="geometry" />
        </mxCell>
        <mxCell id="ngRxiMYijirylgywiZqK-8" value="prof_Name" style="ellipse;whiteSpace=wrap;html=1;align=center;" vertex="1" parent="1">
          <mxGeometry x="160" y="190" width="100" height="40" as="geometry" />
        </mxCell>
        <mxCell id="ngRxiMYijirylgywiZqK-9" value="prof_&lt;span&gt;OfficeNumber&lt;/span&gt;&lt;p class=&quot;MsoNormal&quot;&gt;&lt;/p&gt;" style="ellipse;whiteSpace=wrap;html=1;align=center;" vertex="1" parent="1">
          <mxGeometry x="290" y="200" width="140" height="40" as="geometry" />
        </mxCell>
        <mxCell id="ngRxiMYijirylgywiZqK-10" value="prof_PhoneNumber" style="ellipse;whiteSpace=wrap;html=1;align=center;" vertex="1" parent="1">
          <mxGeometry x="220" y="140" width="120" height="40" as="geometry" />
        </mxCell>
        <mxCell id="ngRxiMYijirylgywiZqK-11" value="" style="endArrow=none;html=1;rounded=0;entryX=0.75;entryY=0;entryDx=0;entryDy=0;" edge="1" parent="1" source="ngRxiMYijirylgywiZqK-9" target="ngRxiMYijirylgywiZqK-4">
          <mxGeometry relative="1" as="geometry">
            <mxPoint x="290" y="210" as="sourcePoint" />
            <mxPoint x="450" y="210" as="targetPoint" />
          </mxGeometry>
        </mxCell>
        <mxCell id="ngRxiMYijirylgywiZqK-12" value="" style="endArrow=none;html=1;rounded=0;exitX=0.5;exitY=1;exitDx=0;exitDy=0;entryX=0.5;entryY=0;entryDx=0;entryDy=0;" edge="1" parent="1" source="ngRxiMYijirylgywiZqK-10" target="ngRxiMYijirylgywiZqK-4">
          <mxGeometry relative="1" as="geometry">
            <mxPoint x="290" y="259" as="sourcePoint" />
            <mxPoint x="450" y="259" as="targetPoint" />
          </mxGeometry>
        </mxCell>
        <mxCell id="ngRxiMYijirylgywiZqK-13" value="" style="endArrow=none;html=1;rounded=0;exitX=1;exitY=1;exitDx=0;exitDy=0;entryX=0.25;entryY=0;entryDx=0;entryDy=0;" edge="1" parent="1" source="ngRxiMYijirylgywiZqK-8" target="ngRxiMYijirylgywiZqK-4">
          <mxGeometry relative="1" as="geometry">
            <mxPoint x="300" y="239" as="sourcePoint" />
            <mxPoint x="460" y="239" as="targetPoint" />
          </mxGeometry>
        </mxCell>
        <mxCell id="ngRxiMYijirylgywiZqK-14" value="" style="endArrow=none;html=1;rounded=0;exitX=1;exitY=0.775;exitDx=0;exitDy=0;exitPerimeter=0;entryX=0;entryY=0.5;entryDx=0;entryDy=0;" edge="1" parent="1" source="ngRxiMYijirylgywiZqK-7" target="ngRxiMYijirylgywiZqK-4">
          <mxGeometry relative="1" as="geometry">
            <mxPoint x="340" y="290" as="sourcePoint" />
            <mxPoint x="500" y="290" as="targetPoint" />
          </mxGeometry>
        </mxCell>
        <mxCell id="ngRxiMYijirylgywiZqK-15" value="lec_&lt;span&gt;ClassRoom&lt;/span&gt;&lt;p class=&quot;MsoNormal&quot;&gt;&lt;/p&gt;" style="ellipse;whiteSpace=wrap;html=1;align=center;" vertex="1" parent="1">
          <mxGeometry x="-40" y="390" width="100" height="40" as="geometry" />
        </mxCell>
        <mxCell id="ngRxiMYijirylgywiZqK-16" value="lec_&lt;span&gt;Year&lt;/span&gt;&lt;p class=&quot;MsoNormal&quot;&gt;&lt;/p&gt;" style="ellipse;whiteSpace=wrap;html=1;align=center;" vertex="1" parent="1">
          <mxGeometry x="20" y="350" width="100" height="40" as="geometry" />
        </mxCell>
        <mxCell id="ngRxiMYijirylgywiZqK-17" value="lec_&lt;span&gt;ClassSize&lt;/span&gt;&lt;p class=&quot;MsoNormal&quot;&gt;&lt;/p&gt;" style="ellipse;whiteSpace=wrap;html=1;align=center;" vertex="1" parent="1">
          <mxGeometry x="-80" y="440" width="100" height="40" as="geometry" />
        </mxCell>
        <mxCell id="ngRxiMYijirylgywiZqK-19" value="lec_&lt;span&gt;ClassTime&lt;/span&gt;&lt;p class=&quot;MsoNormal&quot;&gt;&lt;/p&gt;" style="ellipse;whiteSpace=wrap;html=1;align=center;" vertex="1" parent="1">
          <mxGeometry x="40" y="530" width="100" height="40" as="geometry" />
        </mxCell>
        <mxCell id="ngRxiMYijirylgywiZqK-20" value="lec_&lt;span style=&quot;font-size: 11.0pt ; line-height: 107% ; font-family: &amp;#34;calibri&amp;#34; , sans-serif&quot;&gt;&amp;nbsp;Numbers&lt;/span&gt;" style="ellipse;whiteSpace=wrap;html=1;align=center;" vertex="1" parent="1">
          <mxGeometry x="-10" y="480" width="100" height="40" as="geometry" />
        </mxCell>
        <mxCell id="ngRxiMYijirylgywiZqK-21" value="" style="endArrow=none;html=1;rounded=0;entryX=0.25;entryY=1;entryDx=0;entryDy=0;exitX=0.5;exitY=0;exitDx=0;exitDy=0;" edge="1" parent="1" source="ngRxiMYijirylgywiZqK-19" target="ngRxiMYijirylgywiZqK-2">
          <mxGeometry relative="1" as="geometry">
            <mxPoint x="60" y="499.5" as="sourcePoint" />
            <mxPoint x="220" y="499.5" as="targetPoint" />
          </mxGeometry>
        </mxCell>
        <mxCell id="ngRxiMYijirylgywiZqK-22" value="" style="endArrow=none;html=1;rounded=0;entryX=0;entryY=0.75;entryDx=0;entryDy=0;exitX=1;exitY=0;exitDx=0;exitDy=0;" edge="1" parent="1" source="ngRxiMYijirylgywiZqK-20" target="ngRxiMYijirylgywiZqK-2">
          <mxGeometry relative="1" as="geometry">
            <mxPoint x="60" y="459.5" as="sourcePoint" />
            <mxPoint x="220" y="459.5" as="targetPoint" />
          </mxGeometry>
        </mxCell>
        <mxCell id="ngRxiMYijirylgywiZqK-23" value="" style="endArrow=none;html=1;rounded=0;entryX=0;entryY=0.25;entryDx=0;entryDy=0;exitX=1;exitY=0.5;exitDx=0;exitDy=0;" edge="1" parent="1" source="ngRxiMYijirylgywiZqK-17" target="ngRxiMYijirylgywiZqK-2">
          <mxGeometry relative="1" as="geometry">
            <mxPoint x="20" y="450" as="sourcePoint" />
            <mxPoint x="180" y="450" as="targetPoint" />
          </mxGeometry>
        </mxCell>
        <mxCell id="ngRxiMYijirylgywiZqK-24" value="" style="endArrow=none;html=1;rounded=0;entryX=0.25;entryY=0;entryDx=0;entryDy=0;exitX=1;exitY=0.5;exitDx=0;exitDy=0;" edge="1" parent="1" source="ngRxiMYijirylgywiZqK-15" target="ngRxiMYijirylgywiZqK-2">
          <mxGeometry relative="1" as="geometry">
            <mxPoint x="40" y="430" as="sourcePoint" />
            <mxPoint x="200" y="430" as="targetPoint" />
          </mxGeometry>
        </mxCell>
        <mxCell id="ngRxiMYijirylgywiZqK-25" value="" style="endArrow=none;html=1;rounded=0;exitX=1;exitY=1;exitDx=0;exitDy=0;entryX=0.5;entryY=0;entryDx=0;entryDy=0;" edge="1" parent="1" source="ngRxiMYijirylgywiZqK-16" target="ngRxiMYijirylgywiZqK-2">
          <mxGeometry relative="1" as="geometry">
            <mxPoint x="100" y="370" as="sourcePoint" />
            <mxPoint x="220" y="440" as="targetPoint" />
          </mxGeometry>
        </mxCell>
        <mxCell id="ngRxiMYijirylgywiZqK-27" value="dep_code" style="ellipse;whiteSpace=wrap;html=1;align=center;fontStyle=4;" vertex="1" parent="1">
          <mxGeometry x="560" y="70" width="100" height="40" as="geometry" />
        </mxCell>
        <mxCell id="ngRxiMYijirylgywiZqK-28" value="dep_Head" style="ellipse;whiteSpace=wrap;html=1;align=center;" vertex="1" parent="1">
          <mxGeometry x="460" y="100" width="100" height="40" as="geometry" />
        </mxCell>
        <mxCell id="ngRxiMYijirylgywiZqK-30" value="dep_phoneNumber" style="ellipse;whiteSpace=wrap;html=1;align=center;" vertex="1" parent="1">
          <mxGeometry x="680" y="160" width="100" height="40" as="geometry" />
        </mxCell>
        <mxCell id="ngRxiMYijirylgywiZqK-31" value="dep_name" style="ellipse;whiteSpace=wrap;html=1;align=center;" vertex="1" parent="1">
          <mxGeometry x="430" y="160" width="100" height="40" as="geometry" />
        </mxCell>
        <mxCell id="ngRxiMYijirylgywiZqK-32" value="" style="endArrow=none;html=1;rounded=0;entryX=1;entryY=0.5;entryDx=0;entryDy=0;" edge="1" parent="1" source="ngRxiMYijirylgywiZqK-1" target="ngRxiMYijirylgywiZqK-31">
          <mxGeometry relative="1" as="geometry">
            <mxPoint x="360" y="220" as="sourcePoint" />
            <mxPoint x="520" y="220" as="targetPoint" />
          </mxGeometry>
        </mxCell>
        <mxCell id="ngRxiMYijirylgywiZqK-33" value="" style="endArrow=none;html=1;rounded=0;entryX=0.95;entryY=0.825;entryDx=0;entryDy=0;entryPerimeter=0;exitX=0.5;exitY=0;exitDx=0;exitDy=0;" edge="1" parent="1" source="ngRxiMYijirylgywiZqK-1" target="ngRxiMYijirylgywiZqK-28">
          <mxGeometry relative="1" as="geometry">
            <mxPoint x="380" y="240" as="sourcePoint" />
            <mxPoint x="540" y="240" as="targetPoint" />
          </mxGeometry>
        </mxCell>
        <mxCell id="ngRxiMYijirylgywiZqK-34" value="" style="endArrow=none;html=1;rounded=0;entryX=0.58;entryY=1.05;entryDx=0;entryDy=0;entryPerimeter=0;exitX=0.5;exitY=0;exitDx=0;exitDy=0;" edge="1" parent="1" source="ngRxiMYijirylgywiZqK-1" target="ngRxiMYijirylgywiZqK-27">
          <mxGeometry relative="1" as="geometry">
            <mxPoint x="380" y="229.5" as="sourcePoint" />
            <mxPoint x="540" y="229.5" as="targetPoint" />
          </mxGeometry>
        </mxCell>
        <mxCell id="ngRxiMYijirylgywiZqK-35" value="" style="endArrow=none;html=1;rounded=0;entryX=0.5;entryY=1;entryDx=0;entryDy=0;exitX=0.75;exitY=0;exitDx=0;exitDy=0;" edge="1" parent="1" source="ngRxiMYijirylgywiZqK-1" target="ngRxiMYijirylgywiZqK-97">
          <mxGeometry relative="1" as="geometry">
            <mxPoint x="430" y="220" as="sourcePoint" />
            <mxPoint x="661" y="152" as="targetPoint" />
          </mxGeometry>
        </mxCell>
        <mxCell id="ngRxiMYijirylgywiZqK-36" value="" style="endArrow=none;html=1;rounded=0;entryX=0.5;entryY=1;entryDx=0;entryDy=0;exitX=0.75;exitY=0;exitDx=0;exitDy=0;" edge="1" parent="1" source="ngRxiMYijirylgywiZqK-1" target="ngRxiMYijirylgywiZqK-30">
          <mxGeometry relative="1" as="geometry">
            <mxPoint x="350" y="190" as="sourcePoint" />
            <mxPoint x="510" y="190" as="targetPoint" />
          </mxGeometry>
        </mxCell>
        <mxCell id="ngRxiMYijirylgywiZqK-37" value="st_Grade" style="ellipse;whiteSpace=wrap;html=1;align=center;" vertex="1" parent="1">
          <mxGeometry x="970" y="360" width="100" height="40" as="geometry" />
        </mxCell>
        <mxCell id="ngRxiMYijirylgywiZqK-38" value="st_Major" style="ellipse;whiteSpace=wrap;html=1;align=center;" vertex="1" parent="1">
          <mxGeometry x="980" y="500" width="100" height="40" as="geometry" />
        </mxCell>
        <mxCell id="ngRxiMYijirylgywiZqK-39" value="st_Address" style="ellipse;whiteSpace=wrap;html=1;align=center;" vertex="1" parent="1">
          <mxGeometry x="1080" y="470" width="100" height="40" as="geometry" />
        </mxCell>
        <mxCell id="ngRxiMYijirylgywiZqK-40" value="st_Name" style="ellipse;whiteSpace=wrap;html=1;align=center;" vertex="1" parent="1">
          <mxGeometry x="1070" y="360" width="100" height="40" as="geometry" />
        </mxCell>
        <mxCell id="ngRxiMYijirylgywiZqK-41" value="st_ID" style="ellipse;whiteSpace=wrap;html=1;align=center;fontStyle=4;" vertex="1" parent="1">
          <mxGeometry x="1010" y="420" width="100" height="40" as="geometry" />
        </mxCell>
        <mxCell id="ngRxiMYijirylgywiZqK-42" value="" style="endArrow=none;html=1;rounded=0;entryX=0.75;entryY=1;entryDx=0;entryDy=0;exitX=0.25;exitY=0;exitDx=0;exitDy=0;exitPerimeter=0;" edge="1" parent="1" source="ngRxiMYijirylgywiZqK-38" target="ngRxiMYijirylgywiZqK-6">
          <mxGeometry relative="1" as="geometry">
            <mxPoint x="740" y="419" as="sourcePoint" />
            <mxPoint x="900" y="419" as="targetPoint" />
          </mxGeometry>
        </mxCell>
        <mxCell id="ngRxiMYijirylgywiZqK-43" value="" style="endArrow=none;html=1;rounded=0;exitX=1;exitY=0.5;exitDx=0;exitDy=0;" edge="1" parent="1" source="ngRxiMYijirylgywiZqK-6" target="ngRxiMYijirylgywiZqK-39">
          <mxGeometry relative="1" as="geometry">
            <mxPoint x="780" y="420" as="sourcePoint" />
            <mxPoint x="940" y="420" as="targetPoint" />
          </mxGeometry>
        </mxCell>
        <mxCell id="ngRxiMYijirylgywiZqK-44" value="" style="endArrow=none;html=1;rounded=0;exitX=1;exitY=0.25;exitDx=0;exitDy=0;entryX=0;entryY=0.5;entryDx=0;entryDy=0;" edge="1" parent="1" source="ngRxiMYijirylgywiZqK-6" target="ngRxiMYijirylgywiZqK-41">
          <mxGeometry relative="1" as="geometry">
            <mxPoint x="830" y="379.5" as="sourcePoint" />
            <mxPoint x="980" y="380" as="targetPoint" />
          </mxGeometry>
        </mxCell>
        <mxCell id="ngRxiMYijirylgywiZqK-45" value="" style="endArrow=none;html=1;rounded=0;entryX=0.42;entryY=0.975;entryDx=0;entryDy=0;entryPerimeter=0;exitX=0.5;exitY=0;exitDx=0;exitDy=0;" edge="1" parent="1" source="ngRxiMYijirylgywiZqK-6" target="ngRxiMYijirylgywiZqK-40">
          <mxGeometry relative="1" as="geometry">
            <mxPoint x="770" y="330" as="sourcePoint" />
            <mxPoint x="930" y="330" as="targetPoint" />
          </mxGeometry>
        </mxCell>
        <mxCell id="ngRxiMYijirylgywiZqK-46" value="" style="endArrow=none;html=1;rounded=0;entryX=0.42;entryY=1;entryDx=0;entryDy=0;entryPerimeter=0;exitX=0.5;exitY=0;exitDx=0;exitDy=0;" edge="1" parent="1" source="ngRxiMYijirylgywiZqK-6" target="ngRxiMYijirylgywiZqK-37">
          <mxGeometry relative="1" as="geometry">
            <mxPoint x="750" y="390" as="sourcePoint" />
            <mxPoint x="910" y="390" as="targetPoint" />
          </mxGeometry>
        </mxCell>
        <mxCell id="ngRxiMYijirylgywiZqK-47" value="courseNumber" style="ellipse;whiteSpace=wrap;html=1;align=center;fontStyle=4;" vertex="1" parent="1">
          <mxGeometry x="340" y="600" width="100" height="40" as="geometry" />
        </mxCell>
        <mxCell id="ngRxiMYijirylgywiZqK-48" value="courseID" style="ellipse;whiteSpace=wrap;html=1;align=center;fontStyle=4;" vertex="1" parent="1">
          <mxGeometry x="375" y="670" width="100" height="40" as="geometry" />
        </mxCell>
        <mxCell id="ngRxiMYijirylgywiZqK-49" value="CourseCreditHour" style="ellipse;whiteSpace=wrap;html=1;align=center;" vertex="1" parent="1">
          <mxGeometry x="610" y="600" width="120" height="40" as="geometry" />
        </mxCell>
        <mxCell id="ngRxiMYijirylgywiZqK-50" value="courseLabs" style="ellipse;whiteSpace=wrap;html=1;align=center;" vertex="1" parent="1">
          <mxGeometry x="460" y="630" width="100" height="40" as="geometry" />
        </mxCell>
        <mxCell id="ngRxiMYijirylgywiZqK-51" value="courseName" style="ellipse;whiteSpace=wrap;html=1;align=center;" vertex="1" parent="1">
          <mxGeometry x="550" y="670" width="100" height="40" as="geometry" />
        </mxCell>
        <mxCell id="ngRxiMYijirylgywiZqK-53" value="" style="endArrow=none;html=1;rounded=0;entryX=0.75;entryY=1;entryDx=0;entryDy=0;exitX=0;exitY=0;exitDx=0;exitDy=0;" edge="1" parent="1" source="ngRxiMYijirylgywiZqK-49" target="ngRxiMYijirylgywiZqK-5">
          <mxGeometry relative="1" as="geometry">
            <mxPoint x="530" y="630" as="sourcePoint" />
            <mxPoint x="690" y="630" as="targetPoint" />
          </mxGeometry>
        </mxCell>
        <mxCell id="ngRxiMYijirylgywiZqK-54" value="" style="endArrow=none;html=1;rounded=0;entryX=0.649;entryY=1.01;entryDx=0;entryDy=0;entryPerimeter=0;exitX=0.284;exitY=-0.019;exitDx=0;exitDy=0;exitPerimeter=0;" edge="1" parent="1" source="ngRxiMYijirylgywiZqK-51" target="ngRxiMYijirylgywiZqK-5">
          <mxGeometry relative="1" as="geometry">
            <mxPoint x="500" y="669.41" as="sourcePoint" />
            <mxPoint x="660" y="669.41" as="targetPoint" />
          </mxGeometry>
        </mxCell>
        <mxCell id="ngRxiMYijirylgywiZqK-55" value="" style="endArrow=none;html=1;rounded=0;entryX=0.402;entryY=1.04;entryDx=0;entryDy=0;entryPerimeter=0;" edge="1" parent="1" source="ngRxiMYijirylgywiZqK-50" target="ngRxiMYijirylgywiZqK-5">
          <mxGeometry relative="1" as="geometry">
            <mxPoint x="490" y="659.41" as="sourcePoint" />
            <mxPoint x="650" y="659.41" as="targetPoint" />
          </mxGeometry>
        </mxCell>
        <mxCell id="ngRxiMYijirylgywiZqK-56" value="" style="endArrow=none;html=1;rounded=0;exitX=0.5;exitY=0;exitDx=0;exitDy=0;entryX=0.108;entryY=1.04;entryDx=0;entryDy=0;entryPerimeter=0;" edge="1" parent="1" source="ngRxiMYijirylgywiZqK-48" target="ngRxiMYijirylgywiZqK-5">
          <mxGeometry relative="1" as="geometry">
            <mxPoint x="420" y="598.82" as="sourcePoint" />
            <mxPoint x="530" y="599" as="targetPoint" />
          </mxGeometry>
        </mxCell>
        <mxCell id="ngRxiMYijirylgywiZqK-57" value="" style="endArrow=none;html=1;rounded=0;entryX=0;entryY=0.5;entryDx=0;entryDy=0;exitX=0.766;exitY=0.099;exitDx=0;exitDy=0;exitPerimeter=0;" edge="1" parent="1" source="ngRxiMYijirylgywiZqK-47" target="ngRxiMYijirylgywiZqK-5">
          <mxGeometry relative="1" as="geometry">
            <mxPoint x="430" y="570" as="sourcePoint" />
            <mxPoint x="590" y="570" as="targetPoint" />
          </mxGeometry>
        </mxCell>
        <mxCell id="ngRxiMYijirylgywiZqK-58" value="Faculty" style="whiteSpace=wrap;html=1;align=center;" vertex="1" parent="1">
          <mxGeometry x="860" y="320" width="100" height="40" as="geometry" />
        </mxCell>
        <mxCell id="ngRxiMYijirylgywiZqK-60" value="Employee_id" style="ellipse;whiteSpace=wrap;html=1;align=center;fontStyle=4;" vertex="1" parent="1">
          <mxGeometry x="910" y="230" width="100" height="40" as="geometry" />
        </mxCell>
        <mxCell id="ngRxiMYijirylgywiZqK-61" value="" style="endArrow=none;html=1;rounded=0;exitX=0.419;exitY=1.069;exitDx=0;exitDy=0;exitPerimeter=0;entryX=0.5;entryY=0;entryDx=0;entryDy=0;" edge="1" parent="1" source="ngRxiMYijirylgywiZqK-60" target="ngRxiMYijirylgywiZqK-58">
          <mxGeometry relative="1" as="geometry">
            <mxPoint x="720" y="220" as="sourcePoint" />
            <mxPoint x="930" y="240" as="targetPoint" />
          </mxGeometry>
        </mxCell>
        <mxCell id="ngRxiMYijirylgywiZqK-62" value="sessionManger" style="ellipse;whiteSpace=wrap;html=1;align=center;fontStyle=4;" vertex="1" parent="1">
          <mxGeometry x="690" y="650" width="100" height="40" as="geometry" />
        </mxCell>
        <mxCell id="ngRxiMYijirylgywiZqK-63" value="Prac_year" style="ellipse;whiteSpace=wrap;html=1;align=center;" vertex="1" parent="1">
          <mxGeometry x="800" y="620" width="100" height="40" as="geometry" />
        </mxCell>
        <mxCell id="ngRxiMYijirylgywiZqK-64" value="prac_studentAttend" style="ellipse;whiteSpace=wrap;html=1;align=center;" vertex="1" parent="1">
          <mxGeometry x="870" y="660" width="120" height="40" as="geometry" />
        </mxCell>
        <mxCell id="ngRxiMYijirylgywiZqK-65" value="prac_&lt;span&gt;studentAssessment&lt;/span&gt;&lt;p class=&quot;MsoNormal&quot;&gt;&lt;/p&gt;" style="ellipse;whiteSpace=wrap;html=1;align=center;" vertex="1" parent="1">
          <mxGeometry x="940" y="610" width="170" height="40" as="geometry" />
        </mxCell>
        <mxCell id="ngRxiMYijirylgywiZqK-68" value="" style="endArrow=none;html=1;rounded=0;exitX=0.837;exitY=1.04;exitDx=0;exitDy=0;entryX=0.33;entryY=0.069;entryDx=0;entryDy=0;entryPerimeter=0;exitPerimeter=0;" edge="1" parent="1" source="ngRxiMYijirylgywiZqK-3" target="ngRxiMYijirylgywiZqK-65">
          <mxGeometry relative="1" as="geometry">
            <mxPoint x="900" y="600" as="sourcePoint" />
            <mxPoint x="1060" y="600" as="targetPoint" />
          </mxGeometry>
        </mxCell>
        <mxCell id="ngRxiMYijirylgywiZqK-69" value="" style="endArrow=none;html=1;rounded=0;entryX=0.75;entryY=1;entryDx=0;entryDy=0;exitX=0.5;exitY=0;exitDx=0;exitDy=0;" edge="1" parent="1" source="ngRxiMYijirylgywiZqK-64" target="ngRxiMYijirylgywiZqK-3">
          <mxGeometry relative="1" as="geometry">
            <mxPoint x="790" y="570" as="sourcePoint" />
            <mxPoint x="950" y="570" as="targetPoint" />
          </mxGeometry>
        </mxCell>
        <mxCell id="ngRxiMYijirylgywiZqK-70" value="" style="endArrow=none;html=1;rounded=0;entryX=0.25;entryY=1;entryDx=0;entryDy=0;exitX=0.5;exitY=0;exitDx=0;exitDy=0;" edge="1" parent="1" source="ngRxiMYijirylgywiZqK-63" target="ngRxiMYijirylgywiZqK-3">
          <mxGeometry relative="1" as="geometry">
            <mxPoint x="750" y="549" as="sourcePoint" />
            <mxPoint x="910" y="549" as="targetPoint" />
          </mxGeometry>
        </mxCell>
        <mxCell id="ngRxiMYijirylgywiZqK-71" value="" style="endArrow=none;html=1;rounded=0;entryX=0.25;entryY=1;entryDx=0;entryDy=0;exitX=1;exitY=0;exitDx=0;exitDy=0;" edge="1" parent="1" source="ngRxiMYijirylgywiZqK-62" target="ngRxiMYijirylgywiZqK-3">
          <mxGeometry relative="1" as="geometry">
            <mxPoint x="740" y="590" as="sourcePoint" />
            <mxPoint x="900" y="590" as="targetPoint" />
          </mxGeometry>
        </mxCell>
        <mxCell id="ngRxiMYijirylgywiZqK-72" value="Enroll" style="shape=rhombus;perimeter=rhombusPerimeter;whiteSpace=wrap;html=1;align=center;" vertex="1" parent="1">
          <mxGeometry x="660" y="440" width="90" height="40" as="geometry" />
        </mxCell>
        <mxCell id="ngRxiMYijirylgywiZqK-73" value="" style="edgeStyle=entityRelationEdgeStyle;fontSize=12;html=1;endArrow=ERone;endFill=1;exitX=1;exitY=0.5;exitDx=0;exitDy=0;entryX=0;entryY=0.5;entryDx=0;entryDy=0;" edge="1" parent="1" source="ngRxiMYijirylgywiZqK-72" target="ngRxiMYijirylgywiZqK-6">
          <mxGeometry width="100" height="100" relative="1" as="geometry">
            <mxPoint x="750" y="500" as="sourcePoint" />
            <mxPoint x="830" y="410" as="targetPoint" />
          </mxGeometry>
        </mxCell>
        <mxCell id="ngRxiMYijirylgywiZqK-75" value="" style="edgeStyle=entityRelationEdgeStyle;fontSize=12;html=1;endArrow=ERoneToMany;entryX=1;entryY=0.25;entryDx=0;entryDy=0;exitX=0.5;exitY=1;exitDx=0;exitDy=0;" edge="1" parent="1" source="ngRxiMYijirylgywiZqK-72" target="ngRxiMYijirylgywiZqK-5">
          <mxGeometry width="100" height="100" relative="1" as="geometry">
            <mxPoint x="710" y="600" as="sourcePoint" />
            <mxPoint x="810" y="500" as="targetPoint" />
          </mxGeometry>
        </mxCell>
        <mxCell id="ngRxiMYijirylgywiZqK-76" value="Have" style="shape=rhombus;perimeter=rhombusPerimeter;whiteSpace=wrap;html=1;align=center;" vertex="1" parent="1">
          <mxGeometry x="315" y="440" width="85" height="40" as="geometry" />
        </mxCell>
        <mxCell id="ngRxiMYijirylgywiZqK-77" value="" style="edgeStyle=entityRelationEdgeStyle;fontSize=12;html=1;endArrow=ERoneToMany;exitX=0.118;exitY=0.75;exitDx=0;exitDy=0;exitPerimeter=0;entryX=1;entryY=0.5;entryDx=0;entryDy=0;" edge="1" parent="1" source="ngRxiMYijirylgywiZqK-76" target="ngRxiMYijirylgywiZqK-2">
          <mxGeometry width="100" height="100" relative="1" as="geometry">
            <mxPoint x="350" y="600" as="sourcePoint" />
            <mxPoint x="450" y="500" as="targetPoint" />
          </mxGeometry>
        </mxCell>
        <mxCell id="ngRxiMYijirylgywiZqK-78" value="" style="edgeStyle=entityRelationEdgeStyle;fontSize=12;html=1;endArrow=ERone;endFill=1;entryX=0;entryY=0.25;entryDx=0;entryDy=0;entryPerimeter=0;exitX=1;exitY=0.5;exitDx=0;exitDy=0;" edge="1" parent="1" source="ngRxiMYijirylgywiZqK-76" target="ngRxiMYijirylgywiZqK-5">
          <mxGeometry width="100" height="100" relative="1" as="geometry">
            <mxPoint x="375" y="630" as="sourcePoint" />
            <mxPoint x="475" y="530" as="targetPoint" />
          </mxGeometry>
        </mxCell>
        <mxCell id="ngRxiMYijirylgywiZqK-80" value="" style="edgeStyle=entityRelationEdgeStyle;fontSize=12;html=1;endArrow=ERoneToMany;startArrow=ERoneToMany;exitX=1;exitY=0.75;exitDx=0;exitDy=0;entryX=0;entryY=0.5;entryDx=0;entryDy=0;" edge="1" parent="1" source="ngRxiMYijirylgywiZqK-5" target="ngRxiMYijirylgywiZqK-3">
          <mxGeometry width="100" height="100" relative="1" as="geometry">
            <mxPoint x="670" y="580" as="sourcePoint" />
            <mxPoint x="770" y="480" as="targetPoint" />
          </mxGeometry>
        </mxCell>
        <mxCell id="ngRxiMYijirylgywiZqK-81" value="offer" style="shape=rhombus;perimeter=rhombusPerimeter;whiteSpace=wrap;html=1;align=center;" vertex="1" parent="1">
          <mxGeometry x="530" y="360" width="80" height="50" as="geometry" />
        </mxCell>
        <mxCell id="ngRxiMYijirylgywiZqK-83" value="" style="edgeStyle=entityRelationEdgeStyle;fontSize=12;html=1;endArrow=ERoneToMany;exitX=0.5;exitY=1;exitDx=0;exitDy=0;entryX=0.5;entryY=0;entryDx=0;entryDy=0;" edge="1" parent="1" source="ngRxiMYijirylgywiZqK-81" target="ngRxiMYijirylgywiZqK-5">
          <mxGeometry width="100" height="100" relative="1" as="geometry">
            <mxPoint x="460" y="400" as="sourcePoint" />
            <mxPoint x="530" y="515" as="targetPoint" />
          </mxGeometry>
        </mxCell>
        <mxCell id="ngRxiMYijirylgywiZqK-84" value="" style="edgeStyle=entityRelationEdgeStyle;fontSize=12;html=1;endArrow=ERone;endFill=1;exitX=0.5;exitY=0;exitDx=0;exitDy=0;entryX=0.5;entryY=1;entryDx=0;entryDy=0;" edge="1" parent="1" source="ngRxiMYijirylgywiZqK-81" target="ngRxiMYijirylgywiZqK-1">
          <mxGeometry width="100" height="100" relative="1" as="geometry">
            <mxPoint x="460" y="400" as="sourcePoint" />
            <mxPoint x="560" y="300" as="targetPoint" />
          </mxGeometry>
        </mxCell>
        <mxCell id="ngRxiMYijirylgywiZqK-85" value="Emplyee" style="shape=rhombus;perimeter=rhombusPerimeter;whiteSpace=wrap;html=1;align=center;" vertex="1" parent="1">
          <mxGeometry x="740" y="240" width="70" height="40" as="geometry" />
        </mxCell>
        <mxCell id="ngRxiMYijirylgywiZqK-86" value="" style="edgeStyle=entityRelationEdgeStyle;fontSize=12;html=1;endArrow=ERoneToMany;exitX=1;exitY=0.5;exitDx=0;exitDy=0;entryX=0;entryY=0.5;entryDx=0;entryDy=0;" edge="1" parent="1" source="ngRxiMYijirylgywiZqK-85" target="ngRxiMYijirylgywiZqK-58">
          <mxGeometry width="100" height="100" relative="1" as="geometry">
            <mxPoint x="460" y="360" as="sourcePoint" />
            <mxPoint x="560" y="260" as="targetPoint" />
          </mxGeometry>
        </mxCell>
        <mxCell id="ngRxiMYijirylgywiZqK-87" value="" style="edgeStyle=entityRelationEdgeStyle;fontSize=12;html=1;endArrow=ERone;endFill=1;exitX=0;exitY=0.5;exitDx=0;exitDy=0;entryX=1;entryY=0.5;entryDx=0;entryDy=0;" edge="1" parent="1" source="ngRxiMYijirylgywiZqK-85" target="ngRxiMYijirylgywiZqK-1">
          <mxGeometry width="100" height="100" relative="1" as="geometry">
            <mxPoint x="460" y="360" as="sourcePoint" />
            <mxPoint x="560" y="260" as="targetPoint" />
          </mxGeometry>
        </mxCell>
        <mxCell id="ngRxiMYijirylgywiZqK-89" value="Have" style="shape=rhombus;perimeter=rhombusPerimeter;whiteSpace=wrap;html=1;align=center;" vertex="1" parent="1">
          <mxGeometry x="440" y="280" width="70" height="40" as="geometry" />
        </mxCell>
        <mxCell id="ngRxiMYijirylgywiZqK-90" value="" style="edgeStyle=entityRelationEdgeStyle;fontSize=12;html=1;endArrow=ERoneToMany;exitX=0;exitY=0.5;exitDx=0;exitDy=0;entryX=1;entryY=0.5;entryDx=0;entryDy=0;" edge="1" parent="1" source="ngRxiMYijirylgywiZqK-89" target="ngRxiMYijirylgywiZqK-4">
          <mxGeometry width="100" height="100" relative="1" as="geometry">
            <mxPoint x="460" y="360" as="sourcePoint" />
            <mxPoint x="360" y="300" as="targetPoint" />
          </mxGeometry>
        </mxCell>
        <mxCell id="ngRxiMYijirylgywiZqK-92" value="" style="edgeStyle=entityRelationEdgeStyle;fontSize=12;html=1;endArrow=ERone;endFill=1;entryX=0;entryY=0.5;entryDx=0;entryDy=0;" edge="1" parent="1" target="ngRxiMYijirylgywiZqK-1">
          <mxGeometry width="100" height="100" relative="1" as="geometry">
            <mxPoint x="510" y="300" as="sourcePoint" />
            <mxPoint x="560" y="260" as="targetPoint" />
          </mxGeometry>
        </mxCell>
        <mxCell id="ngRxiMYijirylgywiZqK-93" value="teach" style="shape=rhombus;perimeter=rhombusPerimeter;whiteSpace=wrap;html=1;align=center;" vertex="1" parent="1">
          <mxGeometry x="355" y="365" width="85" height="40" as="geometry" />
        </mxCell>
        <mxCell id="ngRxiMYijirylgywiZqK-94" value="" style="edgeStyle=entityRelationEdgeStyle;fontSize=12;html=1;endArrow=ERone;endFill=1;" edge="1" parent="1" source="ngRxiMYijirylgywiZqK-93">
          <mxGeometry width="100" height="100" relative="1" as="geometry">
            <mxPoint x="460" y="360" as="sourcePoint" />
            <mxPoint x="300" y="320" as="targetPoint" />
          </mxGeometry>
        </mxCell>
        <mxCell id="ngRxiMYijirylgywiZqK-95" value="" style="edgeStyle=entityRelationEdgeStyle;fontSize=12;html=1;endArrow=ERoneToMany;exitX=0.5;exitY=1;exitDx=0;exitDy=0;entryX=0.25;entryY=0;entryDx=0;entryDy=0;" edge="1" parent="1" source="ngRxiMYijirylgywiZqK-93" target="ngRxiMYijirylgywiZqK-5">
          <mxGeometry width="100" height="100" relative="1" as="geometry">
            <mxPoint x="460" y="360" as="sourcePoint" />
            <mxPoint x="560" y="260" as="targetPoint" />
          </mxGeometry>
        </mxCell>
        <mxCell id="ngRxiMYijirylgywiZqK-97" value="dep_Location" style="ellipse;shape=doubleEllipse;margin=3;whiteSpace=wrap;html=1;align=center;" vertex="1" parent="1">
          <mxGeometry x="630" y="110" width="100" height="40" as="geometry" />
        </mxCell>
        <mxCell id="ngRxiMYijirylgywiZqK-98" value="st_LastName" style="ellipse;whiteSpace=wrap;html=1;align=center;" vertex="1" parent="1">
          <mxGeometry x="1030" y="280" width="100" height="40" as="geometry" />
        </mxCell>
        <mxCell id="ngRxiMYijirylgywiZqK-99" value="st_FirstName" style="ellipse;whiteSpace=wrap;html=1;align=center;" vertex="1" parent="1">
          <mxGeometry x="1150" y="290" width="100" height="40" as="geometry" />
        </mxCell>
        <mxCell id="ngRxiMYijirylgywiZqK-100" value="" style="endArrow=none;html=1;rounded=0;entryX=0.5;entryY=1;entryDx=0;entryDy=0;exitX=0.5;exitY=0;exitDx=0;exitDy=0;" edge="1" parent="1" source="ngRxiMYijirylgywiZqK-40" target="ngRxiMYijirylgywiZqK-99">
          <mxGeometry relative="1" as="geometry">
            <mxPoint x="980" y="340" as="sourcePoint" />
            <mxPoint x="1140" y="340" as="targetPoint" />
          </mxGeometry>
        </mxCell>
        <mxCell id="ngRxiMYijirylgywiZqK-101" value="" style="endArrow=none;html=1;rounded=0;entryX=0.5;entryY=1;entryDx=0;entryDy=0;exitX=0.5;exitY=0;exitDx=0;exitDy=0;" edge="1" parent="1" source="ngRxiMYijirylgywiZqK-40" target="ngRxiMYijirylgywiZqK-98">
          <mxGeometry relative="1" as="geometry">
            <mxPoint x="760" y="400" as="sourcePoint" />
            <mxPoint x="920" y="400" as="targetPoint" />
          </mxGeometry>
        </mxCell>
        <mxCell id="ngRxiMYijirylgywiZqK-102" value="" style="edgeStyle=entityRelationEdgeStyle;fontSize=12;html=1;endArrow=ERmandOne;startArrow=ERmandOne;entryX=0.5;entryY=1;entryDx=0;entryDy=0;exitX=0.25;exitY=0;exitDx=0;exitDy=0;" edge="1" parent="1" source="ngRxiMYijirylgywiZqK-6" target="ngRxiMYijirylgywiZqK-58">
          <mxGeometry width="100" height="100" relative="1" as="geometry">
            <mxPoint x="790" y="450" as="sourcePoint" />
            <mxPoint x="890" y="350" as="targetPoint" />
          </mxGeometry>
        </mxCell>
        <mxCell id="ngRxiMYijirylgywiZqK-103" value="&lt;u&gt;Lec_ID&lt;/u&gt;" style="ellipse;whiteSpace=wrap;html=1;align=center;" vertex="1" parent="1">
          <mxGeometry x="140" y="540" width="100" height="40" as="geometry" />
        </mxCell>
        <mxCell id="ngRxiMYijirylgywiZqK-104" value="" style="endArrow=none;html=1;rounded=0;exitX=0.5;exitY=1;exitDx=0;exitDy=0;" edge="1" parent="1" source="ngRxiMYijirylgywiZqK-2" target="ngRxiMYijirylgywiZqK-103">
          <mxGeometry relative="1" as="geometry">
            <mxPoint x="270" y="520" as="sourcePoint" />
            <mxPoint x="430" y="520" as="targetPoint" />
          </mxGeometry>
        </mxCell>
      </root>
    </mxGraphModel>
  </diagram>
</mxfile>
